<svg xmlns="http://www.w3.org/2000/svg" viewBox="0 0 200 200">
  <style>
    path { fill: #000000; }
    @media (prefers-color-scheme: dark) {
      path { fill: #ffffff; }
    }
  </style>
  <path d="M100,10 C150,10 190,50 190,100 C190,150 150,190 100,190 C50,190 10,150 10,100 C10,50 50,10 100,10 Z M100,30 C61.34,30 30,61.34 30,100 C30,138.66 61.34,170 100,170 C138.66,170 170,138.66 170,100 C170,61.34 138.66,30 100,30 Z M100,50 C127.61,50 150,72.39 150,100 C150,127.61 127.61,150 100,150 C72.39,150 50,127.61 50,100 C50,72.39 72.39,50 100,50 Z M100,70 C83.43,70 70,83.43 70,100 C70,116.57 83.43,130 100,130 C116.57,130 130,116.57 130,100 C130,83.43 116.57,70 100,70 Z M55,65 L85,95 M60,45 L100,85 M70,30 L115,75 M85,20 L130,65 M100,15 L145,60"/>
</svg>
